<svg width="77" height="77" viewBox="0 0 77 77" fill="none" xmlns="http://www.w3.org/2000/svg">
<g clip-path="url(#clip0)">
<path d="M76.9249 22.6382C76.7445 18.5469 76.0829 15.7342 75.1351 13.2969C74.1574 10.7098 72.6532 8.39355 70.6824 6.46806C68.757 4.5126 66.4254 2.99312 63.8683 2.03067C61.4169 1.08291 58.6189 0.421293 54.5276 0.240907C50.4057 0.0452435 49.0972 0 38.643 0C28.1888 0 26.8803 0.0452435 22.7737 0.22563C18.6824 0.406016 15.8697 1.06822 13.433 2.01539C10.8453 2.99312 8.52905 4.49732 6.60356 6.46806C4.6481 8.39355 3.12921 10.7251 2.16617 13.2822C1.2184 15.7342 0.556791 18.5316 0.376405 22.6229C0.180742 26.7448 0.135498 28.0533 0.135498 38.5075C0.135498 48.9617 0.180742 50.2702 0.361128 54.3768C0.541514 58.4681 1.20371 61.2809 2.15148 63.7181C3.12921 66.3053 4.6481 68.6215 6.60356 70.547C8.52905 72.5024 10.8606 74.0219 13.4177 74.9844C15.8697 75.9321 18.6671 76.5937 22.759 76.7741C26.865 76.9551 28.1741 76.9998 38.6283 76.9998C49.0825 76.9998 50.391 76.9551 54.4976 76.7741C58.5889 76.5937 61.4017 75.9321 63.8383 74.9844C69.0131 72.9837 73.1044 68.8924 75.1051 63.7181C76.0523 61.2662 76.7145 58.4681 76.8949 54.3768C77.0753 50.2702 77.1205 48.9617 77.1205 38.5075C77.1205 28.0533 77.1053 26.7448 76.9249 22.6382ZM69.9909 54.076C69.8252 57.8365 69.1935 59.8672 68.6671 61.2209C67.3732 64.5754 64.7109 67.2377 61.3564 68.5316C60.0026 69.0581 57.9573 69.6897 54.2115 69.8548C50.1501 70.0358 48.9321 70.0804 38.6583 70.0804C28.3845 70.0804 27.1512 70.0358 23.1045 69.8548C19.344 69.6897 17.3133 69.0581 15.9596 68.5316C14.2902 67.9146 12.7708 66.9369 11.5374 65.6583C10.2589 64.4097 9.28115 62.9055 8.66419 61.2362C8.13772 59.8824 7.50607 57.8365 7.34097 54.0913C7.15999 50.0299 7.11534 48.8113 7.11534 38.5375C7.11534 28.2637 7.15999 27.0304 7.34097 22.9843C7.50607 19.2238 8.13772 17.1931 8.66419 15.8393C9.28115 14.1694 10.2589 12.6506 11.5527 11.4166C12.8007 10.1381 14.3049 9.16034 15.9748 8.54397C17.3286 8.0175 19.3746 7.38586 23.1198 7.22016C27.1811 7.03977 28.3998 6.99453 38.673 6.99453C48.962 6.99453 50.1801 7.03977 54.2267 7.22016C57.9872 7.38586 60.0179 8.0175 61.3717 8.54397C63.041 9.16034 64.5605 10.1381 65.7938 11.4166C67.0724 12.6652 68.0501 14.1694 68.6671 15.8393C69.1935 17.1931 69.8252 19.2385 69.9909 22.9843C70.1713 27.0456 70.2165 28.2637 70.2165 38.5375C70.2165 48.8113 70.1713 50.0146 69.9909 54.076Z" fill="#FFC6A5"/>
<path d="M38.6428 18.7273C27.7226 18.7273 18.8625 27.5868 18.8625 38.5075C18.8625 49.4283 27.7226 58.2878 38.6428 58.2878C49.5635 58.2878 58.423 49.4283 58.423 38.5075C58.423 27.5868 49.5635 18.7273 38.6428 18.7273ZM38.6428 51.3385C31.5583 51.3385 25.8118 45.5925 25.8118 38.5075C25.8118 31.4225 31.5583 25.6766 38.6428 25.6766C45.7278 25.6766 51.4737 31.4225 51.4737 38.5075C51.4737 45.5925 45.7278 51.3385 38.6428 51.3385Z" fill="#FFC6A5"/>
<path d="M63.8233 17.9452C63.8233 20.4953 61.7556 22.5629 59.2049 22.5629C56.6548 22.5629 54.5872 20.4953 54.5872 17.9452C54.5872 15.3945 56.6548 13.3274 59.2049 13.3274C61.7556 13.3274 63.8233 15.3945 63.8233 17.9452Z" fill="#FFC6A5"/>
</g>
<defs>
<clipPath id="clip0">
<rect width="77" height="77" fill="white"/>
</clipPath>
</defs>
</svg>
