<svg width="209" height="47" viewBox="0 0 209 47" fill="none" xmlns="http://www.w3.org/2000/svg">
<g filter="url(#filter0_d)">
<path d="M0.896 44.016L2.176 43.696C3.712 43.2267 4.75733 42.672 5.312 42.032C5.86667 41.3493 6.208 40.112 6.336 38.32L7.936 15.344C7.97867 14.8747 8.02133 14.192 8.064 13.296C8.14933 12.3573 8.192 11.5467 8.192 10.864C8.192 9.54133 7.95733 8.60266 7.488 8.048C7.01867 7.49333 6.144 7.04533 4.864 6.704L3.456 6.384L4.032 4.4H14.656L26.624 33.584L38.848 4.4H47.232L48.128 5.296L47.488 6.384C46.72 7.45066 46.1653 8.53866 45.824 9.648C45.5253 10.7147 45.376 12.0587 45.376 13.68C45.376 14.32 45.3973 15.1733 45.44 16.24C45.5253 17.264 45.5893 18.1173 45.632 18.8L46.72 34.736C46.9333 37.1253 47.3387 39.1307 47.936 40.752C48.576 42.3307 49.536 43.76 50.816 45.04L50.048 46H37.312L36.608 44.016L37.952 43.696C39.1893 43.312 40.064 42.8213 40.576 42.224C41.088 41.6267 41.344 40.7307 41.344 39.536L41.28 37.36L39.488 13.104L27.392 41.904H24.256L12.096 13.104L10.816 31.088C10.6027 34.3733 10.496 36.2507 10.496 36.72C10.496 38.2987 10.6453 39.664 10.944 40.816C11.2853 41.9253 11.8187 42.992 12.544 44.016L13.312 45.04L12.352 46H1.472L0.896 44.016ZM70.143 46.832C65.791 46.832 62.335 45.4667 59.775 42.736C57.215 39.9627 55.935 36.2507 55.935 31.6C55.935 26.9493 57.215 23.28 59.775 20.592C62.335 17.8613 65.791 16.496 70.143 16.496C73.0017 16.496 75.4977 17.1147 77.631 18.352C79.7643 19.5893 81.407 21.3387 82.559 23.6C83.711 25.8613 84.287 28.528 84.287 31.6C84.287 34.672 83.6897 37.36 82.495 39.664C81.343 41.968 79.7003 43.7387 77.567 44.976C75.4337 46.2133 72.959 46.832 70.143 46.832ZM70.015 43.696C72.447 43.696 74.4097 42.608 75.903 40.432C77.439 38.2133 78.207 35.312 78.207 31.728C78.207 29.8933 77.951 28.0587 77.439 26.224C76.927 24.3467 76.0737 22.768 74.879 21.488C73.727 20.1653 72.2123 19.504 70.335 19.504C67.8177 19.504 65.791 20.6133 64.255 22.832C62.7617 25.0507 62.015 27.9947 62.015 31.664C62.015 35.3333 62.719 38.256 64.127 40.432C65.5777 42.608 67.5403 43.696 70.015 43.696ZM99.931 46.832C98.0537 46.832 96.3043 46.2987 94.683 45.232C93.1043 44.1227 91.8243 42.5227 90.843 40.432C89.9043 38.2987 89.435 35.7173 89.435 32.688C89.435 27.696 90.779 23.7493 93.467 20.848C96.1977 17.9467 99.867 16.496 104.475 16.496C106.736 16.496 108.571 16.7307 109.979 17.2V6.896C109.979 6.42666 109.894 6.10666 109.723 5.936C109.552 5.72266 109.275 5.616 108.891 5.616H106.331L105.819 4.144C106.886 3.12 108.144 2.288 109.595 1.648C111.046 0.965331 112.304 0.623997 113.371 0.623997C113.926 0.623997 114.374 0.794664 114.715 1.136C115.056 1.47733 115.227 1.92533 115.227 2.48V40.88C115.227 42.0747 115.846 42.672 117.083 42.672C118.022 42.672 118.982 42.3307 119.963 41.648L121.051 43.12C120.027 44.272 118.939 45.1893 117.787 45.872C116.635 46.512 115.59 46.832 114.651 46.832C113.03 46.832 111.856 46.3627 111.131 45.424C110.406 44.4427 110.043 42.864 110.043 40.688C108.507 42.9493 106.907 44.5493 105.243 45.488C103.622 46.384 101.851 46.832 99.931 46.832ZM102.171 42.288C105.414 42.288 108.038 40.5387 110.043 37.04V21.36C108.379 20.2507 106.502 19.696 104.411 19.696C101.638 19.696 99.4617 20.7413 97.883 22.832C96.347 24.88 95.579 27.8027 95.579 31.6C95.579 35.2693 96.1977 37.9787 97.435 39.728C98.715 41.4347 100.294 42.288 102.171 42.288ZM136.597 46.832C133.823 46.832 131.669 46 130.133 44.336C128.597 42.6293 127.829 40.2613 127.829 37.232V22.768C127.829 21.8293 127.445 21.36 126.677 21.36H124.053L123.605 19.952C124.586 18.928 125.781 18.096 127.189 17.456C128.639 16.816 129.962 16.496 131.157 16.496C131.711 16.496 132.159 16.6667 132.501 17.008C132.885 17.3067 133.077 17.712 133.077 18.224V35.824C133.077 38.128 133.546 39.8987 134.485 41.136C135.423 42.3307 136.81 42.928 138.645 42.928C141.247 42.928 143.274 41.8187 144.725 39.6C146.175 37.3387 146.901 34.224 146.901 30.256C146.901 27.44 146.73 25.2427 146.389 23.664C146.09 22.0427 145.493 20.464 144.597 18.928L143.893 18.032L144.597 17.2L151.765 16.496V40.88C151.765 42.0747 152.277 42.672 153.301 42.672C154.282 42.672 155.242 42.3307 156.181 41.648L157.333 43.12C156.394 44.2293 155.327 45.1253 154.132 45.808C152.981 46.4907 151.893 46.832 150.869 46.832C149.333 46.832 148.223 46.384 147.541 45.488C146.858 44.5493 146.517 43.12 146.517 41.2C145.578 42.9493 144.234 44.336 142.485 45.36C140.735 46.3413 138.773 46.832 136.597 46.832ZM168.614 46.832C166.992 46.832 165.819 46.3627 165.094 45.424C164.411 44.4427 164.07 42.864 164.07 40.688V6.896C164.07 6.42666 163.984 6.10666 163.814 5.936C163.643 5.72266 163.344 5.616 162.918 5.616H160.422L159.846 4.144C160.955 3.12 162.235 2.288 163.686 1.648C165.136 0.965331 166.438 0.623997 167.59 0.623997C168.144 0.623997 168.592 0.794664 168.934 1.136C169.275 1.47733 169.446 1.92533 169.446 2.48L169.318 40.88C169.318 41.52 169.467 42.0107 169.766 42.352C170.064 42.6933 170.491 42.864 171.046 42.864C172.112 42.864 173.072 42.4587 173.926 41.648L175.078 43.12C174.096 44.2293 173.008 45.1253 171.814 45.808C170.619 46.4907 169.552 46.832 168.614 46.832ZM192.643 46.832C188.291 46.832 184.835 45.4667 182.275 42.736C179.715 39.9627 178.435 36.2507 178.435 31.6C178.435 26.9493 179.715 23.28 182.275 20.592C184.835 17.8613 188.291 16.496 192.643 16.496C195.502 16.496 197.998 17.1147 200.131 18.352C202.264 19.5893 203.907 21.3387 205.059 23.6C206.211 25.8613 206.787 28.528 206.787 31.6C206.787 34.672 206.19 37.36 204.995 39.664C203.843 41.968 202.2 43.7387 200.067 44.976C197.934 46.2133 195.459 46.832 192.643 46.832ZM192.515 43.696C194.947 43.696 196.91 42.608 198.403 40.432C199.939 38.2133 200.707 35.312 200.707 31.728C200.707 29.8933 200.451 28.0587 199.939 26.224C199.427 24.3467 198.574 22.768 197.379 21.488C196.227 20.1653 194.712 19.504 192.835 19.504C190.318 19.504 188.291 20.6133 186.755 22.832C185.262 25.0507 184.515 27.9947 184.515 31.664C184.515 35.3333 185.219 38.256 186.627 40.432C188.078 42.608 190.04 43.696 192.515 43.696Z" fill="#A25F2A"/>
</g>
<defs>
<filter id="filter0_d" x="0.895996" y="0.623993" width="207.891" height="46.208" filterUnits="userSpaceOnUse" color-interpolation-filters="sRGB">
<feFlood flood-opacity="0" result="BackgroundImageFix"/>
<feColorMatrix in="SourceAlpha" type="matrix" values="0 0 0 0 0 0 0 0 0 0 0 0 0 0 0 0 0 0 127 0"/>
<feOffset dx="2"/>
<feColorMatrix type="matrix" values="0 0 0 0 0.85 0 0 0 0 0.758929 0 0 0 0 0.6375 0 0 0 1 0"/>
<feBlend mode="normal" in2="BackgroundImageFix" result="effect1_dropShadow"/>
<feBlend mode="normal" in="SourceGraphic" in2="effect1_dropShadow" result="shape"/>
</filter>
</defs>
</svg>
