<svg width="228" height="476" viewBox="0 0 228 476" fill="none" xmlns="http://www.w3.org/2000/svg">
<path d="M193.066 29.4472C200.247 -9.28996 255.753 -9.28995 262.934 29.4472C268.07 57.1571 301.879 68.1423 322.322 48.7438C350.901 21.6257 395.806 54.2508 378.846 89.8107C366.714 115.248 387.609 144.007 415.55 140.33C454.611 135.189 471.763 187.978 437.141 206.777C412.374 220.226 412.374 255.774 437.141 269.223C471.763 288.023 454.611 340.811 415.55 335.67C387.609 331.993 366.714 360.752 378.846 386.189C395.806 421.749 350.901 454.374 322.322 427.256C301.879 407.858 268.07 418.843 262.934 446.553C255.753 485.29 200.247 485.29 193.066 446.553C187.93 418.843 154.121 407.858 133.678 427.256C105.099 454.374 60.1943 421.749 77.1539 386.189C89.2857 360.752 68.3906 331.993 40.4495 335.67C1.38931 340.811 -15.7627 288.022 18.8595 269.223C43.6258 255.774 43.6258 220.226 18.8594 206.777C-15.7627 187.977 1.38933 135.189 40.4496 140.33C68.3906 144.007 89.2857 115.248 77.1539 89.8106C60.1943 54.2508 105.099 21.6256 133.678 48.7438C154.121 68.1423 187.93 57.1571 193.066 29.4472Z" fill="#FFC6A5"/>
</svg>
