<svg width="70" height="70" viewBox="0 0 70 70" fill="none" xmlns="http://www.w3.org/2000/svg">
<g clip-path="url(#clip0)">
<path d="M58.0854 37.9984C56.9538 36.5692 57.2775 35.9334 58.0854 34.6559C58.1 34.6413 67.4421 21.7321 68.4046 17.3542L68.4104 17.3513C68.8887 15.7559 68.4104 14.5834 66.0975 14.5834H58.4442C56.4958 14.5834 55.5975 15.5896 55.1162 16.7155C55.1162 16.7155 51.2196 26.043 45.7071 32.0892C43.9279 33.8363 43.1054 34.3963 42.1342 34.3963C41.6558 34.3963 40.9121 33.8363 40.9121 32.2409V17.3513C40.9121 15.438 40.3667 14.5834 38.7537 14.5834H26.7196C25.4975 14.5834 24.7713 15.4759 24.7713 16.3071C24.7713 18.1213 27.5275 18.5384 27.8133 23.6425V34.7171C27.8133 37.1438 27.3729 37.59 26.3958 37.59C23.7942 37.59 17.4796 28.2246 13.7375 17.5059C12.9821 15.4263 12.2442 14.5863 10.2813 14.5863H2.625C0.440417 14.5863 0 15.5925 0 16.7184C0 18.7075 2.60167 28.598 12.0983 41.6646C18.4275 50.5838 27.3408 55.4167 35.4492 55.4167C40.3229 55.4167 40.9179 54.3434 40.9179 52.4971C40.9179 43.9746 40.4775 43.1696 42.9188 43.1696C44.0504 43.1696 45.9987 43.7296 50.5487 48.0317C55.7492 53.133 56.6038 55.4167 59.5146 55.4167H67.1679C69.3496 55.4167 70.455 54.3434 69.8192 52.2259C68.3638 47.7721 58.5288 38.6109 58.0854 37.9984Z" fill="#FFC6A5"/>
</g>
<defs>
<clipPath id="clip0">
<rect width="70" height="70" fill="white"/>
</clipPath>
</defs>
</svg>
