<?xml version="1.0" standalone="no"?>
<!DOCTYPE svg PUBLIC "-//W3C//DTD SVG 20010904//EN"
 "http://www.w3.org/TR/2001/REC-SVG-20010904/DTD/svg10.dtd">
<svg version="1.0" xmlns="http://www.w3.org/2000/svg"
 width="700.000000pt" height="700.000000pt" viewBox="0 0 700.000000 700.000000"
 preserveAspectRatio="xMidYMid meet">
<metadata>
Created by potrace 1.11, written by Peter Selinger 2001-2013
</metadata>
<g transform="translate(0.000000,700.000000) scale(0.100000,-0.100000)"
fill="#000000" stroke="none">
<path d="M1239 6996 c-2 -2 -58 -7 -125 -10 -66 -4 -131 -8 -145 -11 -13 -2
-51 -6 -84 -10 -33 -3 -78 -10 -100 -15 -22 -5 -52 -11 -67 -14 -16 -3 -40 -8
-55 -11 -50 -11 -178 -65 -243 -102 -83 -49 -195 -161 -243 -243 -71 -123
-129 -315 -143 -480 -3 -30 -7 -61 -9 -67 -16 -48 -20 -556 -20 -2548 0 -2011
3 -2407 20 -2520 2 -16 7 -50 10 -75 17 -150 51 -280 100 -387 127 -277 376
-430 765 -469 30 -3 61 -7 68 -9 47 -16 557 -20 2517 -20 1979 0 2499 4 2546
19 8 3 39 7 69 11 115 12 138 16 230 41 168 46 288 111 387 212 49 49 113 133
113 147 0 3 10 22 23 43 21 35 62 142 71 187 3 11 11 54 20 95 9 41 19 100 22
130 3 30 8 66 10 80 15 111 19 590 19 2545 0 1985 -3 2404 -20 2520 -2 17 -7
50 -10 75 -3 25 -8 63 -11 85 -11 84 -56 233 -93 310 -139 290 -385 429 -831
470 -36 3 -87 9 -115 12 -53 6 -4669 15 -4676 9z"/>
</g>
</svg>
