<svg width="1543" height="510" viewBox="0 0 1543 510" fill="none" xmlns="http://www.w3.org/2000/svg">
<g filter="url(#filter0_d)">
<rect x="3" y="93" width="311" height="311" rx="43" fill="url(#paint0_linear)"/>
<mask id="mask0" mask-type="alpha" maskUnits="userSpaceOnUse" x="352" y="90" width="1173" height="282">
<path d="M522.8 114.8H582C587.6 114.8 590.4 117.6 590.4 123.2V363.6C590.4 369.2 587.6 372 582 372H549.2C543.6 372 540.8 369.2 540.8 363.6V174H539.2L498.4 308C496.8 313.333 493.467 316 488.4 316H454.8C449.733 316 446.4 313.333 444.8 308L403.2 173.6H401.6V363.6C401.6 366.8 401.067 369.067 400 370.4C398.933 371.467 396.667 372 393.2 372H360.4C354.8 372 352 369.2 352 363.6V123.2C352 117.6 354.8 114.8 360.4 114.8H420C423.733 114.8 426.267 116.667 427.6 120.4L470 261.6H472.4L515.2 120.4C516 116.667 518.533 114.8 522.8 114.8ZM735.834 372H700.234C679.168 372 662.901 366.4 651.434 355.2C639.968 344 634.234 327.867 634.234 306.8V233.2C634.234 212.133 639.968 196 651.434 184.8C662.901 173.6 679.168 168 700.234 168H735.834C756.634 168 772.768 173.733 784.234 185.2C795.968 196.4 801.834 212.4 801.834 233.2V306.8C801.834 327.6 795.968 343.733 784.234 355.2C772.768 366.4 756.634 372 735.834 372ZM707.834 328.4H728.234C736.768 328.4 742.768 326.667 746.234 323.2C749.968 319.733 751.834 313.733 751.834 305.2V234.8C751.834 226.267 749.968 220.267 746.234 216.8C742.768 213.333 736.768 211.6 728.234 211.6H707.834C699.301 211.6 693.301 213.333 689.834 216.8C686.368 220.267 684.634 226.267 684.634 234.8V305.2C684.634 313.733 686.368 319.733 689.834 323.2C693.301 326.667 699.301 328.4 707.834 328.4ZM916.55 372H900.15C879.617 372 864.017 366.4 853.35 355.2C842.95 344 837.75 327.867 837.75 306.8V233.2C837.75 212.133 842.95 196 853.35 184.8C864.017 173.6 879.617 168 900.15 168H916.55C924.817 168 932.683 169.867 940.15 173.6C947.617 177.067 952.817 182.4 955.75 189.6H957.35V99.2C957.35 93.6 960.15 90.8 965.75 90.8H999.75C1005.35 90.8 1008.15 93.6 1008.15 99.2V363.6C1008.15 369.2 1005.35 372 999.75 372H965.75C960.15 372 957.35 369.2 957.35 363.6V350.4H955.75C952.817 357.6 947.617 363.067 940.15 366.8C932.683 370.267 924.817 372 916.55 372ZM957.35 297.6V242.4C957.35 222.133 948.15 212 929.75 212H911.75C903.217 212 897.217 213.867 893.75 217.6C890.283 221.067 888.55 227.067 888.55 235.6V304.4C888.55 312.933 890.283 319.067 893.75 322.8C897.217 326.267 903.217 328 911.75 328H929.75C948.15 328 957.35 317.867 957.35 297.6ZM1125.9 372H1112.7C1092.16 372 1076.56 366.4 1065.9 355.2C1055.5 344 1050.3 327.867 1050.3 306.8V176.4C1050.3 170.8 1053.1 168 1058.7 168H1092.7C1098.3 168 1101.1 170.8 1101.1 176.4V304.4C1101.1 312.933 1102.83 319.067 1106.3 322.8C1110.03 326.267 1116.03 328 1124.3 328H1139.1C1157.5 328 1166.7 317.867 1166.7 297.6V176.4C1166.7 170.8 1169.5 168 1175.1 168H1208.7C1214.56 168 1217.5 170.8 1217.5 176.4V363.6C1217.5 369.2 1214.56 372 1208.7 372H1175.1C1169.5 372 1166.7 369.2 1166.7 363.6V350.4H1165.1C1162.16 357.6 1156.96 363.067 1149.5 366.8C1142.03 370.267 1134.16 372 1125.9 372ZM1306.07 372H1272.07C1266.47 372 1263.67 369.2 1263.67 363.6V99.2C1263.67 93.6 1266.47 90.8 1272.07 90.8H1306.07C1311.67 90.8 1314.47 93.6 1314.47 99.2V363.6C1314.47 369.2 1311.67 372 1306.07 372ZM1458.1 372H1422.5C1401.43 372 1385.17 366.4 1373.7 355.2C1362.23 344 1356.5 327.867 1356.5 306.8V233.2C1356.5 212.133 1362.23 196 1373.7 184.8C1385.17 173.6 1401.43 168 1422.5 168H1458.1C1478.9 168 1495.03 173.733 1506.5 185.2C1518.23 196.4 1524.1 212.4 1524.1 233.2V306.8C1524.1 327.6 1518.23 343.733 1506.5 355.2C1495.03 366.4 1478.9 372 1458.1 372ZM1430.1 328.4H1450.5C1459.03 328.4 1465.03 326.667 1468.5 323.2C1472.23 319.733 1474.1 313.733 1474.1 305.2V234.8C1474.1 226.267 1472.23 220.267 1468.5 216.8C1465.03 213.333 1459.03 211.6 1450.5 211.6H1430.1C1421.57 211.6 1415.57 213.333 1412.1 216.8C1408.63 220.267 1406.9 226.267 1406.9 234.8V305.2C1406.9 313.733 1408.63 319.733 1412.1 323.2C1415.57 326.667 1421.57 328.4 1430.1 328.4Z" fill="black"/>
</mask>
<g mask="url(#mask0)">
<rect x="340" y="72" width="1203" height="367" fill="url(#paint1_linear)"/>
</g>
<mask id="mask1" mask-type="alpha" maskUnits="userSpaceOnUse" x="52" y="126" width="213" height="240">
<rect width="27" height="202" rx="13" transform="matrix(0 -1 -1 0 259 366)" fill="white"/>
<path d="M232 223.5C232 216.044 238.044 210 245.5 210C252.956 210 259 216.044 259 223.5V299.011H232V223.5Z" fill="white"/>
<path d="M229.383 299.217C231.383 299.217 232.383 298.27 232.383 296.376V299.217H229.383Z" fill="#C4C4C4"/>
<path d="M232.383 295.429C232.383 298.743 231.883 299.217 228.383 299.217H232.383V295.429Z" fill="#C4C4C4"/>
<path d="M111.5 326C111.036 326 110.804 326 110.607 325.994C103.736 325.786 98.2136 320.264 98.0059 313.393C98 313.196 98 312.964 98 312.5C98 312.036 98 311.804 98.0059 311.607C98.2136 304.736 103.736 299.214 110.607 299.006C110.804 299 111.036 299 111.5 299H259V300C259 312.257 259 318.385 255.192 322.192C251.385 326 245.257 326 233 326H111.5Z" fill="white"/>
<path d="M57 144.5C57 137.044 63.0442 131 70.5 131C77.9558 131 84 137.044 84 144.5V312.5C84 319.956 77.9558 326 70.5 326C63.0442 326 57 319.956 57 312.5V144.5Z" fill="white"/>
<path d="M232.549 144.858C232.569 137.417 238.608 131.396 246.049 131.396C253.519 131.396 259.569 137.463 259.549 144.933L259.42 191.254C259.4 198.695 253.362 204.717 245.92 204.717C238.45 204.717 232.4 198.65 232.421 191.179L232.549 144.858Z" fill="white"/>
<path d="M257.044 152.707C261.373 146.637 259.963 138.207 253.893 133.877C247.823 129.547 239.392 130.958 235.063 137.028L147.517 259.763C143.187 265.833 144.598 274.264 150.668 278.593C156.737 282.923 165.168 281.512 169.498 275.442L257.044 152.707Z" fill="white"/>
<path d="M59.8395 152.67C55.5099 146.6 56.9206 138.169 62.9906 133.839C69.0605 129.51 77.491 130.921 81.8206 136.991L169.367 259.726C173.696 265.796 172.286 274.226 166.216 278.556C160.146 282.885 151.715 281.475 147.386 275.405L59.8395 152.67Z" fill="white"/>
</mask>
<g mask="url(#mask1)">
<rect x="3" y="93" width="311" height="311" fill="url(#paint2_linear)"/>
</g>
</g>
<defs>
<filter id="filter0_d" x="0" y="89.8" width="1531.1" height="323.2" filterUnits="userSpaceOnUse" color-interpolation-filters="sRGB">
<feFlood flood-opacity="0" result="BackgroundImageFix"/>
<feColorMatrix in="SourceAlpha" type="matrix" values="0 0 0 0 0 0 0 0 0 0 0 0 0 0 0 0 0 0 127 0"/>
<feOffset dx="2" dy="4"/>
<feGaussianBlur stdDeviation="2.5"/>
<feColorMatrix type="matrix" values="0 0 0 0 0 0 0 0 0 0 0 0 0 0 0 0 0 0 0.3 0"/>
<feBlend mode="normal" in2="BackgroundImageFix" result="effect1_dropShadow"/>
<feBlend mode="normal" in="SourceGraphic" in2="effect1_dropShadow" result="shape"/>
</filter>
<linearGradient id="paint0_linear" x1="-4.47596" y1="93" x2="391.911" y2="292.305" gradientUnits="userSpaceOnUse">
<stop stop-color="#1E1E1E"/>
<stop offset="1" stop-color="#4E4E4E"/>
</linearGradient>
<linearGradient id="paint1_linear" x1="340" y1="72" x2="811.739" y2="870.834" gradientUnits="userSpaceOnUse">
<stop stop-color="#EE27FF"/>
<stop offset="1" stop-color="#4B0EF7"/>
</linearGradient>
<linearGradient id="paint2_linear" x1="3" y1="93" x2="375.304" y2="285.333" gradientUnits="userSpaceOnUse">
<stop stop-color="#EE27FF"/>
<stop offset="1" stop-color="#4B0EF7"/>
</linearGradient>
</defs>
</svg>
