<svg width="120" height="120" viewBox="0 0 1205 1205" fill="none" xmlns="http://www.w3.org/2000/svg">
<path d="M0 333.215C0 176.136 0 97.5965 48.7983 48.7983C97.5965 0 176.136 0 333.215 0H871.785C1028.86 0 1107.4 0 1156.2 48.7983C1205 97.5965 1205 176.136 1205 333.215V871.785C1205 1028.86 1205 1107.4 1156.2 1156.2C1107.4 1205 1028.86 1205 871.785 1205H333.215C176.136 1205 97.5965 1205 48.7983 1156.2C0 1107.4 0 1028.86 0 871.785V333.215Z" fill="url(#paint0_linear)"/>
<mask id="mask0" mask-type="alpha" maskUnits="userSpaceOnUse" x="209" y="147" width="786" height="911">
<path d="M939.59 1057.77C941.389 1057.77 942.288 1057.77 943.049 1057.74C969.674 1056.94 991.07 1035.54 991.874 1008.92C991.897 1008.16 991.897 1007.26 991.897 1005.46C991.897 1003.66 991.897 1002.76 991.874 1002C991.07 975.374 969.674 953.979 943.049 953.174C942.288 953.151 941.389 953.151 939.59 953.151H261.535C259.737 953.151 258.837 953.151 258.077 953.174C231.452 953.979 210.056 975.374 209.251 1002C209.228 1002.76 209.228 1003.66 209.228 1005.46C209.228 1007.26 209.228 1008.16 209.251 1008.92C210.056 1035.54 231.452 1056.94 258.077 1057.74C258.837 1057.77 259.737 1057.77 261.535 1057.77H939.59Z" fill="white"/>
<path d="M887.283 505.635C887.283 476.747 910.702 453.328 939.59 453.328C968.478 453.328 991.897 476.747 991.897 505.635V798.212H887.283V505.635Z" fill="white"/>
<path d="M877.144 799.006C884.893 799.006 888.768 795.337 888.768 787.999V799.006H877.144Z" fill="white"/>
<path d="M888.768 784.33C888.768 797.172 886.831 799.006 873.269 799.006H888.768V784.33Z" fill="white"/>
<path d="M420.394 902.781C418.595 902.781 417.696 902.781 416.935 902.758C390.31 901.954 368.914 880.558 368.11 853.933C368.087 853.172 368.087 852.273 368.087 850.474C368.087 848.676 368.087 847.776 368.11 847.016C368.914 820.39 390.31 798.995 416.935 798.19C417.696 798.167 418.595 798.167 420.394 798.167H991.897V802.042C991.897 849.531 991.897 873.275 977.144 888.028C962.391 902.781 938.647 902.781 891.158 902.781H420.394Z" fill="white"/>
<path d="M209.228 199.542C209.228 170.653 232.647 147.235 261.535 147.235C290.424 147.235 313.842 170.653 313.842 199.542V850.474C313.842 879.363 290.424 902.781 261.535 902.781C232.647 902.781 209.228 879.363 209.228 850.474V199.542Z" fill="white"/>
<path d="M889.409 200.93C889.489 172.098 912.884 148.767 941.716 148.767C970.661 148.767 994.103 172.274 994.023 201.219L993.526 380.695C993.446 409.526 970.051 432.857 941.219 432.857C912.274 432.857 888.832 409.35 888.912 380.405L889.409 200.93Z" fill="white"/>
<path d="M984.317 231.341C1001.09 207.823 995.627 175.158 972.108 158.382C948.59 141.607 915.925 147.073 899.149 170.591L559.943 646.141C543.168 669.659 548.634 702.324 572.152 719.1C595.671 735.875 628.336 730.409 645.111 706.891L984.317 231.341Z" fill="white"/>
<path d="M220.23 231.196C203.455 207.677 208.921 175.012 232.439 158.237C255.958 141.461 288.623 146.927 305.398 170.446L644.604 645.995C661.38 669.514 655.914 702.178 632.395 718.954C608.877 735.73 576.212 730.263 559.436 706.745L220.23 231.196Z" fill="white"/>
</mask>
<g mask="url(#mask0)">
<rect width="1205" height="1205" fill="url(#paint1_linear)"/>
</g>
<defs>
<linearGradient id="paint0_linear" x1="-28.9664" y1="2.01515e-05" x2="1506.88" y2="772.225" gradientUnits="userSpaceOnUse">
<stop stop-color="#1E1E1E"/>
<stop offset="1" stop-color="#4E4E4E"/>
</linearGradient>
<linearGradient id="paint1_linear" x1="0" y1="0" x2="1442.53" y2="745.212" gradientUnits="userSpaceOnUse">
<stop stop-color="#EE27FF"/>
<stop offset="1" stop-color="#4B0EF7"/>
</linearGradient>
</defs>
</svg>
